# xmcd
#
# Track frame offsets: 
#        182
#        4954
#        23649
#        48467
#        72925
#        96904
#        122744
#        135821
#        174067
#
# Disc length: 2380 seconds
#
# Revision: 1
# Processed by: cddbd v1.5.2PL0 Copyright (c) Steve Scherf et al.
# Submitted via: ExactAudioCopyFreeDBPlugin 1.0
#
DISCID=68094a09
DTITLE=Savoy Brown - Looking In
DYEAR=1970
DGENRE=Blues
TTITLE0=Gypsy
TTITLE1=Poor Girl
TTITLE2=Money Can't Save Your Soul
TTITLE3=Sunday Night
TTITLE4=Looking In
TTITLE5=Take It Easy
TTITLE6=Sitting An' Thinking
TTITLE7=Leavin' Again
TTITLE8=Romanoff
EXTD=
EXTT0=
EXTT1=
EXTT2=
EXTT3=
EXTT4=
EXTT5=
EXTT6=
EXTT7=
EXTT8=
PLAYORDER=
